<svg xmlns="http://www.w3.org/2000/svg" viewBox="0 0 240 150" width="240" height="150" fill="none">
  <!-- Kredora Official Brand Logo (Transparent Background, Violet #7C5CFC) -->
  <defs>
    <linearGradient id="kredora-violet-grad" x1="0%" y1="0%" x2="100%" y2="100%">
      <stop offset="0%" stop-color="#9D85FF" />
      <stop offset="100%" stop-color="#7C5CFC" />
    </linearGradient>
  </defs>
  <g fill="url(#kredora-violet-grad)">
    <!-- Top-left violet segment -->
    <path d="M 4,0 L 108,0 C 90,32 52,65 0,68 L 0,4 C 0,1.8 1.8,0 4,0 Z" />
    <!-- Bottom-left violet segment -->
    <path d="M 0,82 C 52,85 90,118 108,150 L 4,150 C 1.8,150 0,148.2 0,146 L 0,82 Z" />
    <!-- Right stylized violet block with cutout -->
    <path d="M 138,0 L 236,0 C 238.2,0 240,1.8 240,4 L 240,146 C 240,148.2 238.2,150 236,150 L 138,150 C 122,125 102,96 86,75 C 102,54 122,25 138,0 Z" />
  </g>
</svg>
